<?xml version="1.0" encoding="utf-8"?>
<!-- Generator: Adobe Illustrator 25.1.0, SVG Export Plug-In . SVG Version: 6.00 Build 0)  -->
<svg version="1.1" id="Capa_1" xmlns="http://www.w3.org/2000/svg" xmlns:xlink="http://www.w3.org/1999/xlink" x="0px" y="0px"
	 viewBox="0 0 2000 605.56" style="enable-background:new 0 0 2000 605.56;" xml:space="preserve">
<style type="text/css">
	.st0{fill:#CE647C;}
</style>
<g>
	<path class="st0" d="M214.63,97.22c4.12,4.55,9.29,10.32,15.48,17.34c6.19,7.02,10.93,13.42,14.24,19.19l-1.24-1.24
		c1.64,3.71,3.1,7.33,4.33,10.83c1.24,3.51,2.06,8.26,2.48,14.24c0.41,5.99,0.72,13.83,0.93,23.53c0.2,9.7,0.31,22.81,0.31,39.31
		c0,12.38,0,22.4,0,30.03c0,7.64-0.62,13.73-1.86,18.26c-1.24,4.55-3.2,7.64-5.88,9.29c-2.69,1.65-6.5,2.48-11.45,2.48h-49.53
		c-6.61,0-11.56-1.86-14.86-5.57l-16.1-18.57v126.3l56.96,0.62c3.71,0,7.63,1.87,11.76,5.59c4.12,3.73,7.84,8.08,11.14,13.05
		c3.3,4.97,6.39,10.15,9.29,15.53c2.88,5.39,4.95,9.53,6.19,12.43c0.41,0.83,1.24,2.59,2.48,5.28s1.86,4.45,1.86,5.28v57.78
		c0,4.56-0.93,9.32-2.79,14.29c-1.86,4.97-4.33,9.84-7.43,14.61c-3.1,4.75-6.5,9-10.22,12.73c-3.71,3.72-7.43,6.83-11.14,9.32
		c-8.26,4.97-16.2,7.97-23.84,9.02c-7.64,1.03-16.2,1.55-25.69,1.55h-45.2c-0.83,0-2.27-0.31-4.33-0.93
		c-2.07-0.62-3.51-1.14-4.33-1.55c-11.14-3.31-21.57-9.81-31.27-19.5c-9.7-9.7-18.26-18.88-25.69-27.55
		c-10.74-4.12-17.55-9.69-20.43-16.72c-2.89-7.01-4.95-15.88-6.19-26.62c-1.24-7.43-1.86-15.06-1.86-22.91L30.13,148.6
		c0-4.54,0-8.76,0-12.69c0-3.92,0.2-8.14,0.62-12.69c0.82-9.91,4.02-19.71,9.6-29.41c5.57-9.69,12.48-17.43,20.74-23.22
		c8.25-5.78,16.5-9.38,24.77-10.83c8.25-1.44,17.12-2.17,26.62-2.17h48.29c5.36,0,10.73,1.24,16.1,3.71
		c5.36,2.48,10.53,5.68,15.48,9.6c4.95,3.93,9.38,8.16,13.31,12.69c3.92,4.55,7.12,8.88,9.6,13L214.63,97.22z M196.67,101.55
		c-3.31-5.78-8.77-11.45-16.41-17.03c-7.64-5.57-14.97-8.36-21.98-8.36h-45.82c-7.85,0-14.97,0.42-21.36,1.24
		c-6.4,0.83-12.91,3.51-19.5,8.05c-13.62,9.08-21.05,22.08-22.29,39c-0.42,4.13-0.62,8.16-0.62,12.07c0,3.93,0,7.95,0,12.07
		l0.62,295.32c0,6.19,0.2,12.07,0.62,17.64c0.41,5.57,2.26,11.25,5.57,17.03c3.71,7.02,8.76,13,15.17,17.95
		c6.39,4.95,13.51,8.05,21.36,9.29c5.77,0.82,13,1.13,21.67,0.93c8.67-0.21,16.1-0.31,22.29-0.31c7.84,0,15.37-0.2,22.6-0.62
		c7.22-0.41,14.34-2.88,21.36-7.43c5.78-3.3,11.14-8.76,16.1-16.41c4.95-7.63,7.43-14.96,7.43-21.98V404.3l-1.24-1.86
		c-0.83-0.41-1.86-0.62-3.1-0.62h-47.05c-1.24,0-2.27,0.42-3.1,1.24c0.82,8.26,1.13,16.62,0.93,25.07
		c-0.21,8.46-0.31,16.82-0.31,25.07l-1.24-0.62h-0.62H103.8v-0.62V129.41l42.1,0.62l-0.62,97.2h55.72c0.82,0,1.44-0.51,1.86-1.55
		c0.41-1.03,0.62-1.95,0.62-2.79c0-4.12,0-12.07,0-23.84s-0.11-24.24-0.31-37.46c-0.21-13.21-0.83-25.48-1.86-36.84
		c-1.04-11.35-2.58-18.88-4.64-22.6V101.55z"/>
	<path class="st0" d="M412.74,559.7c-9.91,0-19.3,0.1-28.17,0.31c-8.88,0.2-17.34-0.42-25.38-1.86c-8.05-1.45-15.79-4.13-23.22-8.05
		c-7.43-3.93-14.66-10.01-21.67-18.26c-3.31-4.13-6.71-8.05-10.22-11.76c-3.51-3.71-6.92-7.64-10.22-11.76
		c-1.24-1.65-2.69-3.1-4.33-4.33c-1.65-1.24-3.1-2.68-4.33-4.33c-11.98-13.21-17.95-28.48-17.95-45.82
		c0-49.94-0.11-99.57-0.31-148.9c-0.21-49.32-0.31-98.95-0.31-148.9c0-2.88,0-6.6,0-11.14c0-4.54,0.1-9.07,0.31-13.62
		c0.2-4.54,0.51-8.98,0.93-13.31c0.41-4.33,1.03-7.94,1.86-10.83c4.54-13.21,12.69-24.55,24.46-34.05
		c11.76-9.49,24.66-14.86,38.7-16.1c4.12-0.41,8.25-0.62,12.38-0.62c4.12,0,8.25,0,12.38,0c7.43,0,15.17-0.1,23.22-0.31
		c8.05-0.2,15.79,0.52,23.22,2.17c7.84,1.65,15.27,4.86,22.29,9.6c7.01,4.75,12.79,10.43,17.34,17.03c1.24,1.65,2.37,3.41,3.41,5.26
		c1.03,1.86,2.17,3.62,3.4,5.26c4.95,5.79,9.6,11.05,13.93,15.79c4.33,4.75,8.25,9.7,11.76,14.86c3.5,5.17,6.29,10.74,8.36,16.72
		c2.06,5.99,3.1,12.91,3.1,20.74v308.32c0,4.55,0.1,9.39,0.31,14.55c0.2,5.17-0.11,10.01-0.93,14.55
		c-2.07,15.68-8.88,28.79-20.43,39.31c-11.56,10.53-25.18,16.61-40.86,18.26l-0.62-0.62c-2.07,0.41-4.13,0.82-6.19,1.24
		C416.86,559.49,414.8,559.7,412.74,559.7z M439.98,127.01c0-16.12-5.39-28.83-16.17-38.13c-10.78-9.3-24.03-13.95-39.78-13.95
		c-8.71,0-18.03-0.1-27.98-0.31c-9.94-0.2-19.58,0.63-28.91,2.49c-9.33,1.86-17.61,5.37-24.86,10.53
		c-7.26,5.17-12.32,13.33-15.23,24.5c-1.25,4.55-1.97,10.54-2.18,17.98c-0.21,7.44-0.31,13.43-0.31,17.97
		c0,51.67,0.1,102.72,0.31,153.15c0.2,50.43,0.31,101.48,0.31,153.14c0,12,3.94,22.74,11.81,32.24c7.87,9.51,17.61,15.71,29.22,18.6
		c2.9,0.83,6.73,1.33,11.5,1.55c4.76,0.2,9.64,0.31,14.61,0.31c4.97,0,9.94-0.11,14.92-0.31c4.97-0.21,9.11-0.31,12.43-0.31
		c14.5,0,27.45-3.51,38.85-10.54c11.4-7.02,18.33-18.19,20.83-33.49v0.63c0.82-4.55,1.13-9.09,0.93-13.64
		c-0.21-4.55-0.31-9.09-0.31-13.64V127.01z M386.12,451.97H340.3V128.79h45.82V451.97z"/>
	<path class="st0" d="M624.47,110.22l9.29,32.81c4.12-14.44,8.46-28.89,13-43.34c4.54-14.44,9.07-28.89,13.62-43.34h64.39
		c4.54,0,8.67,0.93,12.38,2.79s5.98,5.26,6.81,10.22l25.38,28.48c3.71,4.13,5.57,9.08,5.57,14.86v426.58
		c0,12.38-6.19,18.57-18.57,18.57h-50.77c-2.48,0-5.26-0.21-8.36-0.62c-3.1-0.42-5.68-1.65-7.74-3.71l-27.24-30.96
		c-2.89-0.83-4.95-2.58-6.19-5.26c-1.24-2.69-1.96-5.68-2.17-8.98c-0.21-3.3-0.21-6.6,0-9.91c0.2-3.3,0.31-5.98,0.31-8.05
		c-2.48,0-5.26-1.13-8.36-3.41c-3.1-2.26-5.99-4.85-8.67-7.74c-2.69-2.88-5.17-5.78-7.43-8.67c-2.27-2.88-4.02-4.95-5.26-6.19v74.91
		c0,12.38-6.16,18.57-18.48,18.57h-49.9c-6.57,0-11.49-1.86-14.78-5.57l-26.49-30.34c-4.1-1.65-6.88-4.13-8.31-7.43
		c-1.44-3.31-2.16-7.02-2.16-11.14V76.79c0-13.62,6.77-20.43,20.33-20.43h49.9c3.7,0,7.8,1.96,12.31,5.88
		c4.51,3.93,7.18,7.54,8.01,10.83L624.47,110.22z M727.25,76.79c0-1.24-0.62-1.86-1.86-1.86h-50.77l-1.24,1.24
		c-8.26,28.48-16.41,56.65-24.46,84.51c-8.05,27.86-16,56.03-23.84,84.51L576.8,76.17l-1.86-1.24h-50.15
		c-1.24,0-1.86,0.62-1.86,1.86v425.96c0,1.24,0.62,1.86,1.86,1.86h50.15c1.24,0,1.86-0.61,1.86-1.85l-0.16-229.71l46.59,162.83
		c0,0.83,0.62,1.24,1.86,1.24s1.87-0.41,1.87-1.24l46.43-163.45v230.32c0,1.24,0.41,1.85,1.24,1.85h50.77
		c1.24,0,1.86-0.62,1.86-1.86V76.79z M641.81,482.93l1.24,1.24L641.81,482.93z"/>
	<path class="st0" d="M844.88,559.08c-2.89,0-5.68-0.42-8.36-1.24c-2.69-0.83-5.06-2.27-7.12-4.33l-26-30.96
		c-4.55-1.65-7.43-4.33-8.67-8.05c-1.24-3.71-1.86-7.85-1.86-12.38V131.89c0-6.6,0.51-13.1,1.55-19.5
		c1.03-6.39,3.21-12.48,6.52-18.26c5.38-9.49,12.84-17.65,22.36-24.46s19.86-11.04,31.04-12.69c7.45-0.82,15.3-1.13,23.58-0.93
		c8.28,0.21,16.35,0.31,24.22,0.31c10.76,0,20.68,0.93,29.8,2.79c9.1,1.86,18,6.3,26.7,13.31c3.31,2.48,6.21,5.17,8.7,8.05
		c2.48,2.89,4.76,5.99,6.83,9.29c0.82,0.83,1.33,1.76,1.55,2.79c0.2,1.04,0.73,1.96,1.56,2.79c3.31,4.13,7.13,8.46,11.48,13
		c4.34,4.55,8.38,9.29,12.1,14.24c3.73,4.95,6.83,10.12,9.31,15.48c2.48,5.37,3.72,11.14,3.72,17.34l-0.62,378.9
		c1.24,2.48,1.86,4.95,1.86,7.43c0,3.71-1.04,6.7-3.11,8.98c-2.08,2.26-4.67,4.12-7.79,5.57c-3.11,1.44-6.44,2.37-9.96,2.79
		c-3.53,0.41-6.75,0.62-9.65,0.62c-6.65,0-13.19-0.11-19.62-0.31c-6.44-0.21-12.98-0.31-19.63-0.31s-11.63-1.86-14.95-5.57
		l-17.44-20.43c0,7.01-0.83,13.1-2.48,18.26c-1.65,5.16-7.02,7.74-16.1,7.74H844.88z M965.61,120.74c0-6.6-1.96-13-5.88-19.19
		c-3.93-6.19-8.36-11.14-13.31-14.86c-7.02-5.36-14.14-8.67-21.36-9.91c-7.23-1.24-14.97-1.86-23.22-1.86
		c-7.02,0-14.55-0.1-22.6-0.31c-8.05-0.2-15.58,0.11-22.6,0.93c-14.45,2.07-25.6,8.46-33.43,19.19
		c-7.85,10.74-11.76,23.12-11.76,37.15v370.24c0,2.48,0.82,3.71,2.48,3.71h49.53c1.64,0,2.48-1.95,2.48-5.88c0-3.92,0-6.5,0-7.74
		V360.34c7.84,0,15.57-0.1,23.22-0.31c7.63-0.2,15.37-0.31,23.22-0.31v144.26c0,1.24,0.62,1.86,1.86,1.86h48.29
		c2.48,0,3.71-0.82,3.71-2.48c0-1.64-0.21-2.68-0.62-3.1V120.74z M912.36,305.24h-46.43V128.79h46.43V305.24z"/>
	<path class="st0" d="M1143.29,128.79c-0.42-8.67-0.73-17.34-0.93-26c-0.21-8.67-0.31-17.33-0.31-26c0-13.62,6.81-20.43,20.43-20.43
		h50.15c4.54,0,8.67,1.04,12.38,3.1c3.71,2.07,6.19,5.37,7.43,9.91l26,30.96c1.64,2.07,2.68,4.24,3.1,6.5
		c0.41,2.27,0.62,4.44,0.62,6.5v426.58c0,12.38-6.19,18.57-18.57,18.57h-50.15c-3.31,0-6.19-1.04-8.67-3.1
		c-2.48-2.07-4.75-4.13-6.81-6.19l0.62,0.62l-0.62-1.24v0.62l-0.62-0.62h0.62l-23.53-27.24c-2.07-2.07-4.13-3.62-6.19-4.64
		c-2.07-1.04-3.71-3.2-4.95-6.5h-0.62l-3.71-19.81v49.53c0,6.19-1.24,10.83-3.71,13.93s-6.81,4.64-13,4.64h-41.48
		c-6.61,0-11.56-1.86-14.86-5.57l-26-30.96c-4.55-1.65-7.43-4.13-8.67-7.43c-1.24-3.31-1.86-7.02-1.86-11.14V76.79
		c0-13.62,6.81-20.43,20.43-20.43h50.15c3.3,0,6.91,1.65,10.83,4.95c3.92,3.31,6.5,6.4,7.74,9.29l1.24-0.62l1.24,4.33
		L1143.29,128.79z M1214.49,76.79c0-1.24-0.62-1.86-1.86-1.86h-50.15c-1.24,0-1.86,0.62-1.86,1.86V307.1l-58.82-230.93l-1.86-1.24
		h-50.15c-1.24,0-1.86,0.62-1.86,1.86v426.58c0,1.24,0.62,1.86,1.86,1.86h50.15c1.24,0,1.86-0.62,1.86-1.86V244.57l58.82,259.41
		l1.86,1.24h50.15c1.24,0,1.86-0.62,1.86-1.86V76.79z"/>
	<path class="st0" d="M1333.37,559.08c-6.61,0-11.56-1.86-14.86-5.57l-26-30.96c-4.55-1.24-7.43-3.62-8.67-7.12
		c-1.24-3.51-1.86-7.33-1.86-11.45V77.4c0-13.62,6.81-20.43,20.43-20.43h90.39c7.01,0,13.93,0.31,20.74,0.93
		c6.81,0.62,13.51,2.58,20.12,5.88c10.73,4.95,19.4,12.38,26,22.29c0.82,1.24,1.64,2.58,2.48,4.02c0.82,1.45,1.64,2.58,2.48,3.41
		c6.6,8.26,12.38,15.17,17.34,20.74s8.98,11.14,12.07,16.72c3.09,5.57,5.36,11.87,6.81,18.88c1.44,7.02,2.17,16.1,2.17,27.24v299.66
		c0,7.02-0.21,13.93-0.62,20.74c-0.42,6.81-2.07,13.51-4.95,20.12c-7.02,16.1-16.82,27.03-29.41,32.81
		c-12.59,5.78-27.14,8.67-43.65,8.67H1333.37z M1455.33,140.55c0-22.69-4.64-39.21-13.93-49.53c-9.29-10.31-25.49-15.48-48.6-15.48
		h-90.39c-1.24,0-1.86,0.62-1.86,1.86v426.58c0,1.24,0.62,1.86,1.86,1.86h91.01c5.78,0,11.45-0.2,17.03-0.62
		c5.57-0.41,10.83-1.86,15.79-4.33c12.79-6.19,20.84-14.65,24.15-25.38c3.3-10.73,4.95-22.49,4.95-35.29V140.55z M1401.47,451.97
		h-46.43V129.41h46.43V451.97z"/>
	<path class="st0" d="M1571.72,559.08c-2.89,0-5.68-0.42-8.36-1.24c-2.69-0.83-5.06-2.27-7.12-4.33l-26-30.96
		c-4.55-1.65-7.43-4.33-8.67-8.05s-1.86-7.85-1.86-12.38V131.89c0-6.6,0.51-13.1,1.55-19.5c1.04-6.39,3.21-12.48,6.52-18.26
		c5.38-9.49,12.84-17.65,22.36-24.46c9.52-6.81,19.86-11.04,31.04-12.69c7.45-0.82,15.3-1.13,23.58-0.93
		c8.28,0.21,16.35,0.31,24.22,0.31c10.76,0,20.68,0.93,29.8,2.79c9.1,1.86,18,6.3,26.7,13.31c3.31,2.48,6.21,5.17,8.7,8.05
		c2.48,2.89,4.76,5.99,6.83,9.29c0.82,0.83,1.33,1.76,1.55,2.79c0.2,1.04,0.73,1.96,1.56,2.79c3.31,4.13,7.13,8.46,11.48,13
		c4.34,4.55,8.38,9.29,12.1,14.24s6.83,10.12,9.32,15.48c2.48,5.37,3.72,11.14,3.72,17.34l-0.62,378.9
		c1.24,2.48,1.86,4.95,1.86,7.43c0,3.71-1.04,6.7-3.11,8.98c-2.08,2.26-4.67,4.12-7.79,5.57c-3.12,1.44-6.44,2.37-9.96,2.79
		c-3.53,0.41-6.75,0.62-9.65,0.62c-6.65,0-13.19-0.11-19.62-0.31c-6.44-0.21-12.98-0.31-19.63-0.31c-6.65,0-11.63-1.86-14.95-5.57
		l-17.44-20.43c0,7.01-0.83,13.1-2.48,18.26c-1.65,5.16-7.02,7.74-16.1,7.74H1571.72z M1692.45,120.74c0-6.6-1.96-13-5.88-19.19
		c-3.93-6.19-8.36-11.14-13.31-14.86c-7.02-5.36-14.14-8.67-21.36-9.91c-7.23-1.24-14.97-1.86-23.22-1.86
		c-7.02,0-14.55-0.1-22.6-0.31c-8.05-0.2-15.58,0.11-22.6,0.93c-14.45,2.07-25.6,8.46-33.43,19.19
		c-7.85,10.74-11.76,23.12-11.76,37.15v370.24c0,2.48,0.82,3.71,2.48,3.71h49.53c1.64,0,2.48-1.95,2.48-5.88c0-3.92,0-6.5,0-7.74
		V360.34c7.84,0,15.58-0.1,23.22-0.31c7.63-0.2,15.37-0.31,23.22-0.31v144.26c0,1.24,0.62,1.86,1.86,1.86h48.29
		c2.48,0,3.71-0.82,3.71-2.48c0-1.64-0.21-2.68-0.62-3.1V120.74z M1639.2,305.24h-46.43V128.79h46.43V305.24z"/>
	<path class="st0" d="M1865.8,54.5c5.78,0,11.45,0.21,17.03,0.62c5.57,0.42,11.04,1.65,16.41,3.71c13.62,4.95,24.97,13.62,34.05,26
		c1.24,1.65,2.26,3.41,3.1,5.26c0.82,1.86,1.86,3.41,3.1,4.64c7.01,8.26,14.13,16.41,21.36,24.46c7.22,8.05,11.86,17.64,13.93,28.79
		h-0.62c1.24,5.79,1.86,11.56,1.86,17.34c0,5.79,0,11.56,0,17.33c0,5.79,0.2,11.76,0.62,17.96c0.41,6.19-0.21,12.18-1.86,17.95
		l-0.62-0.62c-1.24,2.89-3.62,5.79-7.12,8.67c-3.51,2.89-6.92,4.33-10.22,4.33h-47.05l-2.48-1.24c-6.61,0-11.56-1.86-14.86-5.57
		l-16.72-19.81v26.62c13.62,0,26.1,3.41,37.46,10.22c11.35,6.81,20.12,16.2,26.31,28.17c0,0.42,0.93,1.76,2.79,4.02
		c1.86,2.27,4.02,4.75,6.5,7.43c2.48,2.69,4.74,5.26,6.81,7.74c2.06,2.48,3.5,4.13,4.33,4.95c7.01,8.26,11.45,17.24,13.31,26.93
		c1.86,9.7,2.79,19.71,2.79,30.03v126.92c0,6.61-0.21,12.49-0.62,17.64c-0.42,5.17-1.34,10.12-2.79,14.86
		c-1.45,4.74-3.51,9.29-6.19,13.62c-2.69,4.33-6.5,8.98-11.45,13.93c-9.5,9.49-18.88,15.17-28.17,17.03
		c-9.29,1.86-20.33,2.79-33.12,2.79h-37.77c-22.7,0-40.46-8.67-53.24-26l0.62,1.24c-3.31-3.71-6.3-7.43-8.98-11.14
		c-2.69-3.71-5.68-7.23-8.98-10.53c-1.24-1.65-2.89-3.1-4.95-4.33c-2.07-1.24-3.93-2.68-5.57-4.33
		c-12.8-14.03-19.19-30.74-19.19-50.15v-113.3c0-6.19,1.13-10.73,3.41-13.62c2.26-2.88,5.16-4.85,8.67-5.88
		c3.5-1.03,7.43-1.44,11.76-1.24c4.33,0.21,8.76,0.31,13.31,0.31c-1.24-1.64-2.48-3.1-3.71-4.33s-2.48-2.68-3.71-4.33
		c-0.83-0.82-1.96-1.75-3.41-2.79c-1.45-1.03-2.58-2.17-3.41-3.41c-8.26-7.01-14.45-15.88-18.57-26.62
		c-2.07-5.36-3.31-10.53-3.71-15.48c-0.42-4.95-0.62-10.31-0.62-16.1V130.65c0-11.55,1.64-21.77,4.95-30.65
		c3.3-8.87,9.29-17.43,17.95-25.69c9.49-8.67,18.78-14.03,27.86-16.1c9.07-2.06,19.6-3.1,31.58-3.1c4.54,0,9.18-0.1,13.93-0.31
		C1856.61,54.6,1861.26,54.5,1865.8,54.5z M1928.33,173.37c0-3.71,0.1-8.15,0.31-13.31c0.2-5.16,0.31-10.53,0.31-16.1
		s-0.11-10.93-0.31-16.1c-0.21-5.16-0.72-9.6-1.55-13.31c-2.07-9.07-6.19-16.92-12.38-23.53c-6.19-6.6-13.42-11.55-21.67-14.86
		c-4.13-1.64-8.57-2.57-13.31-2.79c-4.75-0.2-9.39-0.31-13.93-0.31c-4.55,0-9.19,0.11-13.93,0.31c-4.75,0.21-9.39,0.31-13.93,0.31
		c-19.41,0-34.88,4.33-46.43,13c-11.56,8.67-17.34,23.32-17.34,43.96v114.54c0,4.13,0.1,8.26,0.31,12.38
		c0.2,4.13,1.13,8.05,2.79,11.76c2.88,7.02,7.32,13.42,13.31,19.19c5.98,5.79,12.48,9.91,19.5,12.38c3.3,1.24,7.94,2.07,13.93,2.48
		c5.98,0.42,11.04,0.62,15.17,0.62c6.19,0,12.38-0.1,18.57-0.31c6.19-0.2,12.38-0.31,18.57-0.31l-1.86,0.62v146.11h-46.43v-110.2
		c-1.24-2.06-2.27-3.1-3.1-3.1h-48.91c-1.24,0-1.86,0.62-1.86,1.86v113.3c0,14.45,4.85,26.73,14.55,36.84
		c9.69,10.12,21.77,15.17,36.22,15.17h37.77c9.91,0,18.78-0.62,26.62-1.86c7.84-1.24,15.48-5.57,22.91-13
		c7.43-7.43,11.97-14.86,13.62-22.29c1.64-7.43,2.48-16.1,2.48-26V313.91c0-5.78-0.31-12.07-0.93-18.88
		c-0.62-6.81-2.17-12.69-4.64-17.64c-4.55-8.67-11.05-15.48-19.5-20.43c-8.46-4.95-17.64-7.43-27.55-7.43h-47.67v-0.62V127.55v-0.62
		h45.82l0.62,0.62v47.05c0,1.24,0.62,1.86,1.86,1.86l2.48,1.24h47.05l1.86-1.24c0-0.82,0.1-1.33,0.31-1.55
		C1928.23,174.71,1928.33,174.2,1928.33,173.37z M1956.81,114.55l3.71,4.33l-3.71-3.71V114.55z"/>
</g>
</svg>
