<?xml version="1.0" encoding="utf-8"?>
<!-- Generator: Adobe Illustrator 25.1.0, SVG Export Plug-In . SVG Version: 6.00 Build 0)  -->
<svg version="1.1" id="Capa_1" xmlns="http://www.w3.org/2000/svg" xmlns:xlink="http://www.w3.org/1999/xlink" x="0px" y="0px"
	 viewBox="0 0 400 400" style="enable-background:new 0 0 400 400;" xml:space="preserve">
<style type="text/css">
	.st0{fill:#004CAA;stroke:#F4FDFE;stroke-miterlimit:10;}
	.st1{fill:#F4FDFE;}
</style>
<path class="st0" d="M78.3,341.6c15.2,5.5,31.2,8.3,47.4,8.2c17.6-0.1,35.1-3.1,51.8-8.9c33.4-11.6,61.2-33.3,78.2-61
	c17.2-28,21.3-58.9,11.6-86.9c-0.2-0.5-0.4-1.1-0.6-1.6c4.9,3.5,11.2,4.6,17.1,3l92-44.7c8.7-4.2,12.3-14.5,8.1-23.2l-0.1-0.2
	l-1.4-2.7c-4.2-8.4-14.2-11.9-22.7-8.1L273,155.1c-8.9,2.5-15,10.6-15,19.8c0,2.3,0.4,4.6,1.2,6.8l-1.7,1.1
	c-22.8-11.4-77.9-2.2-129.5,15.7c-3,1-6,2.1-9.1,3.2c-5.7-21.1,9-36.5,9.9-37.3l-8.2-8.2c-5.6,6.1-9.8,13.3-12.3,21.2
	c-2.9,9.3-3,19.2-0.2,28.5c-9.3,3.7-18.2,7.6-26.6,11.7c-4.7-17.4-5.1-35.3-4.4-48.2c0.5-10.8-7.8-20-18.7-20.6s-20,7.8-20.6,18.7
	c0,0.3,0,0.6,0,0.9v41c0,1.7-1.4,3.1-3.1,3.1h0c-8.1,0-14.7,6.6-14.7,14.7v0.1c0.3,9.4,2,18.7,5,27.6c-8.9,9.5-12,18.1-9.4,25.6
	C25.1,308.7,47.5,330.3,78.3,341.6L78.3,341.6z M234,213.2c-1.2,10.4-3.3,12.5-3.3,12.6l0.1,0.1c-4.8,3.3-10.1,6.5-15.7,9.8
	c3.8-7.5,6.3-15.6,7.4-23.9c0.4-3.2,3.3-5.5,6.5-5.1c3,0.3,5.2,2.9,5.1,5.8C234.1,212.8,234.1,213,234,213.2L234,213.2z
	 M364.4,126.1c2.8-1.3,6.2-0.1,7.6,2.7l1.4,2.7c1.4,2.9,0.3,6.3-2.6,7.8c0,0,0,0,0,0l-0.1,0.1l-72.1,35.1c-0.1-5.8-2.7-11.3-7.1-15
	L364.4,126.1z M278.2,166.2c4.8,0,8.7,3.9,8.7,8.7c0,2.7-1.2,5.2-3.4,6.9l-3.2,1.6c-1,0.3-2.1,0.3-3.2,0.2l1.4-0.9
	c2.6-1.8,3.3-5.4,1.5-8.1c-1.8-2.5-5.2-3.3-7.8-1.6l-0.1,0.1l-2.6,1.7C269.7,169.9,273.5,166.2,278.2,166.2L278.2,166.2z
	 M120.1,227.9l8.9-7.4c-2.1-2.5-4-5.2-5.7-8c2.8-1,5.5-2,8.3-3c31.7-11,62.6-18,87-19.7c11.4-0.8,20.9-0.3,27.7,1.3
	c5.5,1.3,9,3.4,9.8,5.8s-0.6,6.1-4.1,10.6c-2,2.5-4.2,4.8-6.6,7c0.4-9.6-7-17.7-16.6-18.2c-8.6-0.4-16.2,5.6-17.8,14
	c-1.9,14.4-8.7,27.6-19.3,37.5c-13.3,6.2-27,11.7-40.8,16.5c-5.9,2-11.8,4-17.6,5.7c-22.9-4.4-39.1-18.3-48.2-41.2
	c8.7-4.2,17.9-8.3,27.5-12.1C114.7,220.6,117.3,224.4,120.1,227.9L120.1,227.9z M32.3,225.1c0.6-0.6,1.4-0.9,2.2-0.9
	c8.1,0,14.7-6.6,14.7-14.7v-41c0-4.4,3.6-8,8-8s8,3.6,8,8c0,0.1,0,0.3,0,0.4c-0.8,16.8,0,41.6,8.8,64c5.1,12.9,12.3,23.5,21.3,31.5
	c5.2,4.6,11,8.3,17.3,11.2c-13.3,3.4-26.7,5.9-40.3,7.5l-4.8-0.9c-13-2.2-22.8-10.3-29.2-24.3c-4.3-9.6-6.7-20-7-30.6
	C31.3,226.4,31.7,225.6,32.3,225.1L32.3,225.1z M26.3,276.8c-0.8-2.3,0.5-5.8,3.6-10c3.4,6.5,8.1,12.3,13.8,16.9
	c-2.5-0.2-5.1-0.6-7.6-1.2C30.6,281.3,27.1,279.2,26.3,276.8L26.3,276.8z"/>
<path class="st0" d="M66.6,90.8c-9.6,0-17.4,7.8-17.4,17.4s7.8,17.4,17.4,17.4c9.6,0,17.4-7.8,17.4-17.4c0,0,0,0,0,0
	C84,98.6,76.2,90.8,66.6,90.8z M66.6,114c-3.2,0-5.8-2.6-5.8-5.8c0-3.2,2.6-5.8,5.8-5.8c3.2,0,5.8,2.6,5.8,5.8c0,0,0,0,0,0
	C72.5,111.4,69.9,114,66.6,114C66.7,114,66.7,114,66.6,114L66.6,114z"/>
<path class="st0" d="M124.6,67.6c0-9.6-7.8-17.4-17.4-17.4S89.8,58,89.8,67.6c0,9.6,7.8,17.4,17.4,17.4l0,0
	C116.8,85,124.6,77.2,124.6,67.6z M101.4,67.6c0-3.2,2.6-5.8,5.8-5.8c3.2,0,5.8,2.6,5.8,5.8c0,3.2-2.6,5.8-5.8,5.8
	S101.4,70.8,101.4,67.6z"/>
<path class="st0" d="M89.8,131.4h11.6V143H89.8V131.4z"/>
<path class="st0" d="M84,183.6h11.6v11.6H84V183.6z"/>
<path class="st1" d="M118.8,235.8h11.6v11.6h-11.6L118.8,235.8z"/>
<path class="st0" d="M26,125.6h11.6v11.6H26V125.6z"/>
<path class="st1" d="M75,281.2l6.4-9.6c-14.2-9.5-14.8-18.2-14.8-18.5c0,0,0,0.1,0,0.1H55C55,254.7,55.6,268.2,75,281.2L75,281.2z"
	/>
<path class="st0" d="M132.2,105.1c2.4-3.6,5.1-7,8.1-10.2l-8.2-8.2c-0.8,0.8-19.1,19.3-19.1,38.9h11.6
	C124.6,119.7,127.3,112.6,132.2,105.1z"/>
</svg>
