<svg id="Capa_1" data-name="Capa 1" xmlns="http://www.w3.org/2000/svg" viewBox="0 0 400 400"><defs><style>.cls-1{fill:#f4fdfe;}</style></defs><path class="cls-1" d="M78.35,341.61a137.78,137.78,0,0,0,47.37,8.19,157.86,157.86,0,0,0,51.76-8.92c33.45-11.63,61.22-33.28,78.19-60.95C272.88,251.89,277,221,267.25,193a15.1,15.1,0,0,0-.65-1.56,20.24,20.24,0,0,0,17.06,3l92-44.66a17.4,17.4,0,0,0,8.15-23.21l-.12-.25-1.36-2.72a17.36,17.36,0,0,0-22.71-8.07L273,155.1a20.46,20.46,0,0,0-15,19.77,20.17,20.17,0,0,0,1.16,6.75l-1.7,1.14c-22.76-11.38-77.94-2.21-129.49,15.73q-4.54,1.57-9.06,3.25c-5.7-21.1,9-36.47,9.85-37.28l-8.22-8.19a56.16,56.16,0,0,0-12.31,21.22A48.36,48.36,0,0,0,108,206c-9.28,3.7-18.19,7.62-26.63,11.69-4.68-17.37-5.09-35.29-4.45-48.24a19.64,19.64,0,1,0-39.24-1.88c0,.3,0,.6,0,.9v41a3.13,3.13,0,0,1-3.13,3.13,14.74,14.74,0,0,0-14.74,14.72v.09a93.49,93.49,0,0,0,5,27.63c-8.87,9.5-12,18.11-9.43,25.64,9.74,28,32.12,49.65,63,61Zm95.32-11.68c-30.92,10.75-63.36,11-91.34.79-20.67-7.57-37-20.23-47.54-36.49a88.83,88.83,0,0,0,18.41,1.66q5.32,0,11.38-.41c20-1.37,44.05-6.14,69.3-13.64.51.08,14.33-4.45,20.75-6.68a447.41,447.41,0,0,0,43-17.43l.29-.14a289.67,289.67,0,0,0,39.91-22.38q15-10.28,22.57-19.44c4.36,46.3-31,94.77-86.75,114.16ZM234,213.23c-1.22,10.4-3.26,12.54-3.34,12.62l.11.11c-4.8,3.27-10.06,6.53-15.73,9.75a74.78,74.78,0,0,0,7.4-23.88,5.82,5.82,0,0,1,11.6.73,5,5,0,0,1,0,.67Zm130.39-87.14a5.78,5.78,0,0,1,7.56,2.7l1.36,2.71a5.8,5.8,0,0,1-2.6,7.78l-.11.06-72.07,35.1a20.25,20.25,0,0,0-7.14-15Zm-86.14,40.08a8.69,8.69,0,0,1,5.31,15.57l-3.19,1.55a8.21,8.21,0,0,1-3.16.21l1.36-.91a5.8,5.8,0,0,0-6.34-9.71l-.1.06-2.57,1.72a8.71,8.71,0,0,1,8.69-8.49Zm-158.12,61.7,8.91-7.43a59.61,59.61,0,0,1-5.65-8q4.16-1.53,8.33-3c31.72-11,62.63-18,87-19.7,11.36-.78,20.94-.33,27.69,1.31,5.49,1.34,9,3.38,9.81,5.77s-.63,6.15-4.12,10.61a60.09,60.09,0,0,1-6.61,7A17.42,17.42,0,0,0,211,210.28a61.91,61.91,0,0,1-19.34,37.46,439.59,439.59,0,0,1-40.83,16.47q-8.87,3.07-17.62,5.74c-22.91-4.42-39.11-18.27-48.18-41.21,8.65-4.21,17.86-8.27,27.46-12.1a68.93,68.93,0,0,0,7.7,11.23Zm-87.88-2.79a3.16,3.16,0,0,1,2.23-.93,14.74,14.74,0,0,0,14.73-14.73v-41a8,8,0,1,1,16.09,0c0,.14,0,.27,0,.41-.82,16.84,0,41.63,8.85,64,5.08,12.9,12.26,23.52,21.35,31.55a69.58,69.58,0,0,0,17.27,11.18,297.06,297.06,0,0,1-40.35,7.52l-4.84-.89c-12.95-2.16-22.79-10.34-29.24-24.32a81,81,0,0,1-7-30.6,3.09,3.09,0,0,1,.91-2.22Zm-6,51.75c-.8-2.31.53-5.83,3.62-9.95a55.55,55.55,0,0,0,13.76,16.94,55.28,55.28,0,0,1-7.57-1.23c-5.49-1.33-9-3.38-9.81-5.76Z"/><path class="cls-1" d="M66.64,90.79A17.4,17.4,0,1,0,84,108.19,17.4,17.4,0,0,0,66.64,90.79Zm0,23.19a5.8,5.8,0,1,1,5.8-5.79A5.79,5.79,0,0,1,66.64,114Z"/><path class="cls-1" d="M124.63,67.6A17.4,17.4,0,1,0,107.23,85,17.4,17.4,0,0,0,124.63,67.6Zm-23.2,0a5.8,5.8,0,1,1,5.8,5.8A5.8,5.8,0,0,1,101.43,67.6Z"/><path class="cls-1" d="M89.84,131.38h11.59V143H89.84Z"/><path class="cls-1" d="M84,183.57h11.6v11.59H84Z"/><path class="cls-1" d="M118.83,235.75h11.6v11.6h-11.6Z"/><path class="cls-1" d="M26.05,125.58h11.6v11.6H26.05Z"/><path class="cls-1" d="M75,281.17l6.44-9.65c-14.17-9.45-14.8-18.16-14.82-18.52a.57.57,0,0,1,0,.15H55.05c0,1.5.56,15.07,20,28Z"/><path class="cls-1" d="M132.23,105.06a74.23,74.23,0,0,1,8.1-10.17l-8.2-8.2c-.78.78-19.1,19.32-19.1,38.89h11.6C124.63,119.67,127.26,112.57,132.23,105.06Z"/></svg>