<svg id="Capa_1" data-name="Capa 1" xmlns="http://www.w3.org/2000/svg" viewBox="0 0 400 400"><defs><style>.cls-1{fill:#fff;}</style></defs><path class="cls-1" d="M235.79,224.54c.22,2.24,2.2,7.62,2.7,9.49.67,2.52,2.06,4.13,5.25,3.5a12,12,0,0,1,5.66.59c22.4,6.93,44.85,13.71,67.12,21a72.91,72.91,0,0,1,50,67.86c.28,14.93,0,29.87.11,44.81,0,6.26-3.6,9.81-8.69,12.42H41.4c-6.8-3.07-9.31-8.42-8.72-15.68.3-3.71,0-7.46.07-11.2.09-3.91,2.27-6.35,5.47-6.34s5.33,2.46,5.39,6.38c.07,4.45-.09,8.91.12,13.36,0,.89,1.3,2.46,2,2.46,15.28.15,30.55.11,46.37.11v-4.05q0-24.21,0-48.42a16.26,16.26,0,0,1,.51-4.63c.79-2.64,3-4.27,5.49-3.44,1.83.59,3.44,2.51,4.63,4.2.65.9.28,2.57.28,3.89q0,24,0,48.06v4.15H296.33v-51.9a30.79,30.79,0,0,1,.16-4,5.28,5.28,0,0,1,10.37-.59,18,18,0,0,1,.39,4.28q0,24,0,48.06V373c1.09.12,1.9.28,2.7.28q21.13,0,42.28,0c1.61,0,3.54.51,3.51-2.26-.21-16.49.82-33.1-.84-49.45C352.37,296.43,338.08,279,314.44,270c-11.89-4.52-24.28-7.72-36.4-11.68-2.09-.68-3,.18-4.2,1.51q-12.69,14.56-25.48,29.07c-8.13,9.2-16,11.24-27.49,7.34-6.15-2.07-12.27-4.27-18.48-6.14a10,10,0,0,0-5.5,0c-6.32,1.94-12.57,4.12-18.81,6.32-10.52,3.71-19.36,1.27-26.67-7.08-8.56-9.79-17.18-19.53-25.69-29.38-1.42-1.64-2.59-2.29-4.84-1.55-11.2,3.67-22.5,7-33.69,10.7-26,8.59-42.75,31.29-43.53,58.64,0,.72,0,1.44,0,2.16-.15,4-2.18,6.4-5.37,6.44s-5.5-2.54-5.51-6.69a72.55,72.55,0,0,1,9.13-36.33c10-17.89,25-29.56,44.51-35.57,20.8-6.4,41.55-13,62.34-19.39a22.26,22.26,0,0,1,6.37-1c4.33,0,6-1.28,6.32-5.64.09-1.07,0-2.16,0-3.87-1.57,0-1-4.63-2.52-4.7l-7.07-6.78c-18.21-12.32-29.78-28.84-36.33-49.11L108,165.44c0-1.49-4.92-1-6.11-1.93C97,159.72,94,155,94.06,148.77c0-6.71.49-13.42.71-20.14a2.54,2.54,0,0,0-.62-1.87c-4.31-3.36-4.06-8-3.37-12.57a29.17,29.17,0,0,1,11-18.85,7,7,0,0,0,2.28-4.68c.22-8.91.06-17.82.12-26.74,0-7.35,3.44-11.85,10.33-14.39A8,8,0,0,0,118,46.71c10.33-14.4,23.9-24.35,40.92-29.21a74.19,74.19,0,0,1,18.78-3.09c16.37-.3,32.81-.69,49.11.51,21.18,1.55,38.35,11.74,51.74,28.19,2.55,3.14,4.7,6.2,9,7.78,5.26,2,7.57,6.8,7.6,12.47,0,9,.08,18.07,0,27.1a5.56,5.56,0,0,0,2.45,5.11c7.55,5.79,11.48,13.57,11.18,23.09-.08,2.51-1.85,5-2.85,7.46-.4,1-1.15,2-1.14,3,.07,7.32.66,14.65.34,22a14.85,14.85,0,0,1-6.93,11.74c-2.48,1.64-8.14.61-8.12,3.37L284,167.51a92.21,92.21,0,0,1-36.58,49.14Zm-111.38-95.8c0,8.41-.74,16.64.13,24.7,4.06,37.56,37.92,67,75.56,66.45,43.2-.65,81.66-36.56,75.09-91.15ZM284.27,89.51c0-8.27,0-16.43,0-24.59,0-4.07-.8-4.91-4.83-4.94-7.46,0-14.93,0-22.4,0-4.69,0-9.39,0-14.08-.15A4.84,4.84,0,0,1,238,55a4.89,4.89,0,0,1,4.37-5.66,31.16,31.16,0,0,1,5.38-.31c6.92,0,13.83,0,21.45,0-1-1.18-1.37-1.73-1.83-2.23C254.12,32.32,237.53,25.28,218,25.07c-12.16-.14-24.33-.06-36.49,0a66.22,66.22,0,0,0-34.41,9.3A58.94,58.94,0,0,0,130.24,49h4.57q39.91,0,79.84,0a20.52,20.52,0,0,1,4.64.45,4.8,4.8,0,0,1,3.82,5.38,4.84,4.84,0,0,1-4.44,4.9,31.1,31.1,0,0,1-4.32.21H157.63c-12.4,0-24.81,0-37.21,0-4.54,0-5.29.77-5.3,5.2q0,10.65,0,21.31c0,1,.13,2.07.2,3Zm13.6,27.92a18.4,18.4,0,0,0-.17-2.3c-1.84-8.88-9.2-14.73-18.78-14.73q-79.29,0-158.57,0a24.94,24.94,0,0,0-5,.52c-7.54,1.55-13.75,9.08-13.59,16.51ZM225.62,227.92c-.22,0-1.29-.06-2.35,0a19.05,19.05,0,0,0-3.21.42,86.76,86.76,0,0,1-40.78,0c-2.11-.49-4.38-.31-7-.46A22.09,22.09,0,0,1,167,244.85l32.66,31,31.66-30C229.35,239.53,227.62,234.16,225.62,227.92ZM135,254.22c9.08,10.25,17.69,20.29,26.75,29.9,1.8,1.9,5.6,3.39,8.06,2.91,6.47-1.25,12.72-3.68,19.68-5.83-11.66-11.06-22.64-21.49-33.67-31.85a3.16,3.16,0,0,0-2.51-.85C147.35,250.26,141.43,252.19,135,254.22Zm129.35,0c-5.83-1.82-11.24-3.36-16.53-5.25-2.31-.83-3.71-.28-5.38,1.31-10,9.58-20.06,19.06-30.09,28.58-.66.62-1.2,1.36-2.08,2.39,6,1.95,11.52,3.82,17.11,5.55A9.74,9.74,0,0,0,238,284C246.77,274.28,255.36,264.39,264.36,254.2ZM113,155.73V129.09c-6.19-1.22-7.93,0-8.07,5.53-.12,4.56-.13,9.13,0,13.69C105.12,153.16,108.1,155.75,113,155.73Zm173.36,0c4.9,0,7.89-2.57,8.05-7.42.15-4.56.14-9.12,0-13.68-.13-5.52-1.87-6.76-8.07-5.54Z"/></svg>