<?xml version="1.0" encoding="utf-8"?>
<!-- Generator: Adobe Illustrator 25.1.0, SVG Export Plug-In . SVG Version: 6.00 Build 0)  -->
<svg version="1.1" id="Capa_1" xmlns="http://www.w3.org/2000/svg" xmlns:xlink="http://www.w3.org/1999/xlink" x="0px" y="0px"
	 viewBox="0 0 2000 561.11" style="enable-background:new 0 0 2000 561.11;" xml:space="preserve">
<style type="text/css">
	.st0{fill:#FFFFFF;}
</style>
<g>
	<g>
		<g>
			<g>
				<path class="st0" d="M132.09,387.31c-30.28-6.35-54.1-21.31-71.49-44.85c-17.38-23.92-26.07-53.82-26.07-89.71
					c0-35.88,8.78-65.78,26.35-89.71c17.56-23.73,41.58-38.69,72.05-44.85l2.8-0.56c8.78-1.68,17.94-2.52,27.47-2.52
					c9.53,0,18.69,0.84,27.47,2.52l2.52,0.56c16.26,3.55,30.18,10.19,41.77,19.9v-22.71h56.91v283.42
					c0,41.86-12.43,75.22-37.28,100.08c-25.05,25.04-58.31,37.56-99.8,37.56c-28.59,0-53.45-5.89-74.57-17.66
					c-20.93-11.96-36.91-28.97-47.94-51.02l51.02-25.23c6.73,13.83,17.47,23.83,32.24,30c11.21,4.67,24.29,7.01,39.25,7.01
					c53.45,0,80.18-26.91,80.18-80.74v-31.12c-11.4,9.53-25.05,16.08-40.93,19.62l-3.08,0.56c-8.79,1.68-18.04,2.52-27.75,2.52
					c-9.72,0-19.06-0.84-28.03-2.52L132.09,387.31z M163.21,172.01c-26.91,0-46.35,8.88-58.31,26.63
					c-9.16,13.46-13.74,31.49-13.74,54.1c0,22.8,4.58,40.93,13.74,54.38c11.96,17.76,31.4,26.63,58.31,26.63
					c26.72,0,46.07-8.87,58.03-26.63c9.15-13.27,13.74-31.21,13.74-53.82v-1.12c0-22.43-4.58-40.37-13.74-53.82
					C209.28,180.8,189.93,172.01,163.21,172.01z"/>
				<path class="st0" d="M465.41,115.11c39.06,0,70.27,12.52,93.63,37.56c23.36,24.86,35.04,58.22,35.04,100.08
					c0,41.87-11.68,75.23-35.04,100.08c-23.36,25.05-54.57,37.57-93.63,37.57c-39.06,0-70.27-12.52-93.63-37.57
					c-23.36-24.85-35.04-58.21-35.04-100.08c0-41.86,11.68-75.22,35.04-100.08C395.14,127.63,426.35,115.11,465.41,115.11z
					 M465.41,333.49c26.91,0,46.35-8.78,58.31-26.35c9.15-13.64,13.74-31.77,13.74-54.38c0-22.61-4.58-40.74-13.74-54.39
					c-11.96-17.56-31.4-26.35-58.31-26.35c-26.91,0-46.35,8.79-58.31,26.35c-8.97,13.64-13.46,31.77-13.46,54.39
					c0,22.62,4.49,40.75,13.46,54.38C419.06,324.7,438.5,333.49,465.41,333.49z"/>
				<path class="st0" d="M703.42,378.34c-20.37-10.28-36.16-26.16-47.38-47.66c-11.4-22.05-17.1-48.03-17.1-77.93V115.11h56.91
					v137.65c0,22.8,3.83,40.93,11.49,54.38c10.09,17.57,26.54,26.35,49.34,26.35c22.43,0,38.69-8.5,48.78-25.51
					c7.85-13.27,11.87-31.02,12.05-53.26V115.11h56.91v275.01h-56.91v-16.54c-2.43,1.87-4.95,3.46-7.57,4.77
					c-15.89,8.04-33.64,12.05-53.26,12.05C737.06,390.39,719.3,386.38,703.42,378.34z"/>
				<path class="st0" d="M991.32,390.39h-56.91V115.67h56.91v22.71c11.4-9.53,25.04-16.16,40.93-19.9l2.8-0.56
					c8.97-1.68,18.31-2.52,28.03-2.52v56.91c-26.73,0-46.07,8.79-58.03,26.35c-9.16,13.46-13.74,31.49-13.74,54.1V390.39z"/>
				<path class="st0" d="M1421.36,127.16c20.37,10.28,36.16,26.26,47.38,47.94c11.4,21.87,17.1,47.75,17.1,77.65v137.64h-56.91
					V252.75c0-22.61-3.83-40.65-11.49-54.1c-10.09-17.75-26.54-26.63-49.34-26.63c-22.43,0-38.69,8.6-48.78,25.79
					c-7.85,13.08-11.87,30.74-12.05,52.98v139.61h-56.91V115.39h56.91v16.54c2.43-1.68,4.95-3.27,7.57-4.77
					c15.88-8.03,33.64-12.05,53.26-12.05C1387.72,115.11,1405.47,119.13,1421.36,127.16z"/>
				<path class="st0" d="M1788.03,277.42h-198.2c7.29,37.38,31.4,56.07,72.33,56.07c16.63,0,31.21-3.08,43.73-9.25
					c12.33-6.35,21.21-15.04,26.63-26.07l51.02,24.95c-10.28,21.12-26.17,37.56-47.66,49.34c-21.49,11.96-46.07,17.94-73.73,17.94
					c-40,0-71.86-12.52-95.59-37.57c-23.92-24.85-35.88-58.21-35.88-100.08c0-41.86,11.68-75.22,35.04-100.08
					c23.36-25.04,54.57-37.56,93.63-37.56c34.2,0,62.51,9.72,84.94,29.15c22.43,19.25,36.25,45.69,41.49,79.33
					c1.49,8.6,2.24,17.48,2.24,26.63v2.52V277.42z M1728.04,223.6c-8.04-34.38-30.93-51.58-68.68-51.58
					c-37.75,0-60.65,17.2-68.68,51.58H1728.04z"/>
				<path class="st0" d="M1851.67,176.78l-39.81-4.77v-56.91l39.81,4.77V27.92h56.91v91.95l39.81-4.77v56.91l-39.81,4.77v106.25
					v21.3c0,11.59,2.52,19.72,7.57,24.39c3.74,3.18,9.43,4.77,17.1,4.77h14.86v56.91h-14.86c-24.49,0-44.2-7.94-59.15-23.83
					c-14.95-15.88-22.43-36.63-22.43-62.24v-21.3V176.78z"/>
			</g>
		</g>
		<g>
			<path class="st0" d="M1078.95,306.48l45.98-45.98l-45.98-45.97l40.09-40.09l86.06,86.06l-86.06,86.34L1078.95,306.48z"/>
		</g>
		<g>
			<g>
				<path class="st0" d="M376.74,501.09c0,2.58-2.15,4.58-4.58,4.58h-60c-2.58,0-4.58-2-4.58-4.58v-91.93c0-2.58,2-4.58,4.58-4.58
					h60c2.43,0,4.58,2,4.58,4.58c0,2.43-2.15,4.44-4.58,4.44h-55.41v34.79h39.95c2.43,0,4.58,2,4.58,4.44
					c0,2.58-2.15,4.58-4.58,4.58h-39.95v39.09h55.41C374.6,496.51,376.74,498.66,376.74,501.09z"/>
				<path class="st0" d="M405.95,409.17v91.93c0,2.58-2,4.58-4.58,4.58c-2.58,0-4.58-2-4.58-4.58v-91.93c0-2.58,2-4.58,4.58-4.58
					C403.95,404.59,405.95,406.59,405.95,409.17z"/>
				<path class="st0" d="M547.13,467.02c0,22.05-15.75,38.66-36.51,38.66c-11.17,0-20.91-4.73-27.49-12.6v47.4
					c0,2.58-2,4.58-4.58,4.58c-2.43,0-4.58-2-4.58-4.58V432.79c0-2.43,2.15-4.44,4.58-4.44c2.58,0,4.58,2,4.58,4.44v8.02
					c6.59-7.73,16.32-12.46,27.49-12.46C531.38,428.35,547.13,444.96,547.13,467.02z M538.11,467.02c0-16.9-11.88-29.64-27.49-29.64
					c-15.75,0-27.49,12.74-27.49,29.64c0,16.75,11.74,29.5,27.49,29.5C526.23,496.51,538.11,483.77,538.11,467.02z"/>
				<path class="st0" d="M638.2,432.79v68.3c0,2.58-2,4.58-4.58,4.58c-2.58,0-4.58-2-4.58-4.58v-8.02
					c-6.59,7.88-16.32,12.6-27.49,12.6c-20.76,0-36.51-16.61-36.51-38.66c0-22.05,15.75-38.66,36.51-38.66
					c11.17,0,20.91,4.73,27.49,12.46v-8.02c0-2.43,2-4.44,4.58-4.44C636.2,428.35,638.2,430.36,638.2,432.79z M629.04,467.02
					c0-16.9-11.74-29.64-27.49-29.64c-15.61,0-27.35,12.74-27.35,29.64c0,16.75,11.74,29.5,27.35,29.5
					C617.29,496.51,629.04,483.77,629.04,467.02z"/>
				<path class="st0" d="M694.76,432.79c0,2.58-2,4.58-4.58,4.58c-12.6,0-22.19,10.31-22.19,23.91V462c0,0.14,0,0.29,0,0.43v38.66
					c0,2.58-2,4.58-4.58,4.58c-2.43,0-4.44-2-4.44-4.58v-68.3c0-2.43,2-4.44,4.44-4.44c2.58,0,4.58,2,4.58,4.44v4.72
					c5.58-5.73,13.32-9.16,22.19-9.16C692.75,428.35,694.76,430.36,694.76,432.79z"/>
				<path class="st0" d="M754.75,492.79c2,1.58,2.15,4.44,0.57,6.44c-3.58,4.15-8.73,6.44-14.03,6.44
					c-10.31,0-18.61-8.3-18.61-18.47v-49.83h-4.15c-2.43,0-4.44-2-4.44-4.58c0-2.43,2-4.44,4.44-4.44h4.15v-14.6
					c0-2.58,2.15-4.58,4.58-4.58c2.58,0,4.58,2,4.58,4.58v14.6h16.18c2.58,0,4.58,2,4.58,4.44c0,2.58-2,4.58-4.58,4.58h-16.18v49.83
					c0,5.16,4.3,9.31,9.45,9.31c2.72,0,5.3-1.15,7.02-3.29C750.03,491.36,752.89,491.07,754.75,492.79z"/>
				<path class="st0" d="M838.09,461.29v39.81c0,2.58-2,4.58-4.44,4.58c-2.58,0-4.58-2-4.58-4.58v-39.81
					c0-13.75-9.02-23.91-21.48-23.91c-12.89,0-22.91,10.6-22.91,23.91V462c0,0.14,0,0.29,0,0.43v38.66c0,2.58-2,4.58-4.58,4.58
					c-2.43,0-4.44-2-4.44-4.58v-68.3c0-2.43,2-4.44,4.44-4.44c2.58,0,4.58,2,4.58,4.44v5.15c5.87-6.01,13.89-9.59,22.91-9.59
					c8.73,0,16.75,3.44,22.34,9.88C835.22,444.25,838.09,452.41,838.09,461.29z"/>
				<path class="st0" d="M894.64,505.68c-20.91,0-36.51-16.61-36.51-38.66c0-10.45,3.44-20.05,9.74-27.21
					c6.59-7.45,15.89-11.46,26.06-11.46c20.48,0,35.22,16.18,35.22,38.66c0,2.43-2,4.58-4.58,4.58h-57.13
					c2,14.46,13.03,24.92,27.21,24.92c9.59,0,18.04-4.58,22.91-12.89c1.43-2.15,4.15-2.72,6.3-1.43c2.15,1.29,2.86,4.15,1.57,6.3
					C918.7,499.38,907.53,505.68,894.64,505.68z M867.44,462.43h52.26c-1.72-14.89-11.74-25.06-25.77-25.06
					C879.89,437.38,869.3,447.68,867.44,462.43z"/>
				<path class="st0" d="M984.99,432.79c0,2.58-2,4.58-4.58,4.58c-12.6,0-22.19,10.31-22.19,23.91V462c0,0.14,0,0.29,0,0.43v38.66
					c0,2.58-2,4.58-4.58,4.58c-2.43,0-4.44-2-4.44-4.58v-68.3c0-2.43,2-4.44,4.44-4.44c2.58,0,4.58,2,4.58,4.44v4.72
					c5.58-5.73,13.32-9.16,22.19-9.16C982.99,428.35,984.99,430.36,984.99,432.79z"/>
				<path class="st0" d="M1131.19,409.17v91.93c0,2.58-2,4.58-4.44,4.58c-2.58,0-4.58-2-4.58-4.58v-8.02
					c-6.59,7.88-16.32,12.6-27.49,12.6c-20.91,0-36.66-16.61-36.66-38.66c0-22.05,15.75-38.66,36.66-38.66
					c11.17,0,20.91,4.73,27.49,12.46v-31.64c0-2.58,2-4.58,4.58-4.58C1129.18,404.59,1131.19,406.59,1131.19,409.17z
					 M1122.17,467.02c0-16.9-11.88-29.64-27.49-29.64s-27.49,12.74-27.49,29.64c0,16.75,11.88,29.5,27.49,29.5
					S1122.17,483.77,1122.17,467.02z"/>
				<path class="st0" d="M1187.74,505.68c-20.91,0-36.51-16.61-36.51-38.66c0-10.45,3.44-20.05,9.74-27.21
					c6.59-7.45,15.89-11.46,26.06-11.46c20.48,0,35.22,16.18,35.22,38.66c0,2.43-2,4.58-4.58,4.58h-57.13
					c2,14.46,13.03,24.92,27.21,24.92c9.59,0,18.04-4.58,22.91-12.89c1.43-2.15,4.15-2.72,6.3-1.43c2.15,1.29,2.86,4.15,1.58,6.3
					C1211.8,499.38,1200.63,505.68,1187.74,505.68z M1160.54,462.43h52.26c-1.72-14.89-11.74-25.06-25.77-25.06
					S1162.4,447.68,1160.54,462.43z"/>
				<path class="st0" d="M1330.93,492.79c2,1.58,2.15,4.44,0.57,6.44c-3.58,4.15-8.73,6.44-14.03,6.44
					c-10.31,0-18.62-8.3-18.62-18.47v-49.83h-4.15c-2.43,0-4.44-2-4.44-4.58c0-2.43,2-4.44,4.44-4.44h4.15v-14.6
					c0-2.58,2.15-4.58,4.58-4.58c2.58,0,4.58,2,4.58,4.58v14.6h16.18c2.58,0,4.58,2,4.58,4.44c0,2.58-2,4.58-4.58,4.58h-16.18v49.83
					c0,5.16,4.3,9.31,9.45,9.31c2.72,0,5.3-1.15,7.02-3.29C1326.2,491.36,1329.07,491.07,1330.93,492.79z"/>
				<path class="st0" d="M1412.97,432.79v68.3c0,2.58-2,4.58-4.58,4.58s-4.58-2-4.58-4.58v-5.15c-5.73,6.01-13.75,9.74-22.77,9.74
					c-8.88,0-16.75-3.58-22.34-9.88c-5.3-6.01-8.3-14.32-8.3-23.2v-39.81c0-2.43,2-4.44,4.58-4.44s4.58,2,4.58,4.44v39.81
					c0,13.89,9.02,23.91,21.48,23.91c12.74,0,22.77-10.45,22.77-23.91v-0.57c0-0.14,0-0.29,0-0.43v-38.8c0-2.43,2-4.44,4.58-4.44
					S1412.97,430.36,1412.97,432.79z"/>
				<path class="st0" d="M1531.1,505.68c-20.76,0-36.51-16.61-36.51-38.66c0-22.05,15.75-38.66,36.51-38.66
					c12.03,0,22.77,5.44,29.5,15.18c1.43,2.15,1,5.01-1.15,6.44c-2,1.43-4.87,0.86-6.3-1.15c-5.15-7.3-12.89-11.46-22.05-11.46
					c-15.61,0-27.49,12.74-27.49,29.64c0,16.75,11.88,29.5,27.49,29.5c9.16,0,16.9-4.01,22.05-11.31c1.43-2.15,4.3-2.58,6.3-1.15
					c2.15,1.43,2.58,4.29,1.15,6.3C1553.87,500.09,1543.13,505.68,1531.1,505.68z"/>
				<path class="st0" d="M1618.3,505.68c-21.34,0-38.66-17.33-38.66-38.66s17.33-38.66,38.66-38.66c21.33,0,38.66,17.33,38.66,38.66
					S1639.64,505.68,1618.3,505.68z M1618.3,437.38c-16.32,0-29.5,13.32-29.5,29.64s13.17,29.5,29.5,29.5
					c16.32,0,29.5-13.17,29.5-29.5S1634.63,437.38,1618.3,437.38z"/>
				<path class="st0" d="M1712.8,505.68c-20.76,0-36.51-16.61-36.51-38.66c0-22.05,15.75-38.66,36.51-38.66
					c12.03,0,22.77,5.44,29.5,15.18c1.43,2.15,1,5.01-1.15,6.44c-2,1.43-4.87,0.86-6.3-1.15c-5.15-7.3-12.89-11.46-22.05-11.46
					c-15.61,0-27.49,12.74-27.49,29.64c0,16.75,11.88,29.5,27.49,29.5c9.16,0,16.9-4.01,22.05-11.31c1.43-2.15,4.3-2.58,6.3-1.15
					c2.15,1.43,2.58,4.29,1.15,6.3C1735.57,500.09,1724.83,505.68,1712.8,505.68z"/>
				<path class="st0" d="M1768.22,411.31c2.86,0,5.01,2.29,5.01,4.87c0,2.72-2.15,4.87-5.01,4.87c-2.72,0-5.01-2.15-5.01-4.87
					C1763.2,413.61,1765.5,411.31,1768.22,411.31z M1768.22,505.68c-2.43,0-4.58-2-4.58-4.58v-68.3c0-2.43,2.15-4.44,4.58-4.44
					c2.58,0,4.58,2,4.58,4.44v68.3C1772.8,503.67,1770.79,505.68,1768.22,505.68z"/>
				<path class="st0" d="M1857.13,461.29v39.81c0,2.58-2,4.58-4.44,4.58c-2.58,0-4.58-2-4.58-4.58v-39.81
					c0-13.75-9.02-23.91-21.48-23.91c-12.89,0-22.91,10.6-22.91,23.91V462c0,0.14,0,0.29,0,0.43v38.66c0,2.58-2,4.58-4.58,4.58
					c-2.43,0-4.44-2-4.44-4.58v-68.3c0-2.43,2-4.44,4.44-4.44c2.58,0,4.58,2,4.58,4.44v5.15c5.87-6.01,13.89-9.59,22.91-9.59
					c8.73,0,16.75,3.44,22.34,9.88C1854.27,444.25,1857.13,452.41,1857.13,461.29z"/>
				<path class="st0" d="M1949.63,432.79v68.3c0,2.58-2,4.58-4.58,4.58s-4.58-2-4.58-4.58v-8.02c-6.59,7.88-16.32,12.6-27.49,12.6
					c-20.76,0-36.51-16.61-36.51-38.66c0-22.05,15.75-38.66,36.51-38.66c11.17,0,20.91,4.73,27.49,12.46v-8.02
					c0-2.43,2-4.44,4.58-4.44S1949.63,430.36,1949.63,432.79z M1940.47,467.02c0-16.9-11.74-29.64-27.49-29.64
					c-15.61,0-27.35,12.74-27.35,29.64c0,16.75,11.74,29.5,27.35,29.5C1928.73,496.51,1940.47,483.77,1940.47,467.02z"/>
			</g>
		</g>
	</g>
</g>
</svg>
