<?xml version="1.0" encoding="utf-8"?>
<!-- Generator: Adobe Illustrator 22.0.0, SVG Export Plug-In . SVG Version: 6.00 Build 0)  -->
<svg version="1.1" id="Layer_1" xmlns="http://www.w3.org/2000/svg" xmlns:xlink="http://www.w3.org/1999/xlink" x="0px" y="0px"
	 viewBox="0 0 511 511" style="enable-background:new 0 0 511 511;" xml:space="preserve">
<style type="text/css">
	.st0{fill:#FFFFFF;}
</style>
<path class="st0" d="M457.8,117.7c2.3-0.9,4.8-0.8,7,0.3c17.6,6.7,37.3-2.1,44-19.7c6.7-17.6-2.1-37.3-19.7-44
	c-0.1-0.1-0.3-0.1-0.4-0.1c2.7-11.5-1.7-23.4-11.2-30.4c-9.4-7-22.1-7.8-32.4-2c-6.7-6.3-16-9.2-25.1-7.7c-9.1,1.5-17,7.2-21.3,15.3
	c-13.2-3.3-26.9,2.9-33.1,15c-10.8-6-23-9.3-35.4-9.4c-27.3,0.3-52.4,15.1-66,38.8c-12.4-33.2-28.5-56-48.3-67.8
	c-9.4-5.5-20.8-6.6-31.1-2.8c-10.3,3.8-18.3,12-21.9,22.3C152.7,59,149.2,94.2,152.8,129c-6.8,0.6-13.1,4-17.3,9.3
	c-4.3,5.3-6.2,12.1-5.4,18.9l15,129.6c-13.5,8.5-25.9,18.7-36.9,30.3c-4.8,4.9-11.3,7.6-18.1,7.6h-7.2c-3-5.3-8.6-8.5-14.7-8.6H8.5
	c-4.7,0-8.5,3.8-8.5,8.5v127.8c0,4.7,3.8,8.5,8.5,8.5h59.6c6.1,0,11.6-3.3,14.7-8.5h22.6c0.9,0.2,1.8,0.7,2.6,1.4
	c14.9,13.7,33.8,22.2,53.9,24.2h5.5l1.3,11.5C170.1,502.3,181,512,194,512h250.7c13,0,23.9-9.7,25.4-22.6l38.6-332.2
	c0.8-7.2-1.5-14.5-6.3-19.9c-4.8-5.4-11.8-8.6-19.1-8.6H453C454.2,120.7,456.8,118.3,457.8,117.7z M330.2,52.1
	c11.1,0,21.9,3.3,31.1,9.4c19.3,13.2,30.8,35.2,30.4,58.6c0,2.9-0.2,5.8-0.6,8.7h-122c-1.2-9.8-0.4-19.8,2.4-29.4
	C278.3,72.2,302.3,52.9,330.2,52.1z M179.1,30.9c2-5.4,6.2-9.7,11.6-11.7c5.4-2,11.5-1.5,16.5,1.4c13.6,8.1,32.7,28.2,47.2,77.5
	c-1.8,7.2-2.8,14.5-2.8,21.9c0,2.9,0.2,5.8,0.5,8.7h-24l-5.8-23.4l9.8-2.4c3-0.7,5.4-2.9,6.3-5.9c0.9-3,0.1-6.2-2.1-8.4
	s-5.4-3.1-8.3-2.2l-9.8,2.4L212.7,67c-1.2-4.5-5.8-7.3-10.3-6.1c-4.5,1.1-7.3,5.7-6.2,10.3l5.5,21.8l-7.8,1.9c-4.2,1-6.9,5-6.4,9.3
	c0.5,4.3,4.1,7.5,8.4,7.5c0.7,0,1.4-0.1,2.1-0.3l7.8-1.9l4.8,19.2h-40.7C166.3,95.8,169.4,62.6,179.1,30.9z M68.1,333.1v68.1H17
	v-68.1H68.1z M17,443.8v-25.5h51.1v25.5H17z M120.3,442c-3.9-4-9.2-6.4-14.8-6.7H85.2v-93.6h4.9c11.4,0,22.3-4.6,30.3-12.7
	c11.1-11.8,23.9-21.9,37.9-30.1l0.1-0.1c2.1-1.1,4.3-2.2,6.6-3.1c11.1-4.4,66.9-27.3,82.3-42.7c1.2-1.2,3-2.6,4.3-2.1
	c2.5,1.6,3.9,4.4,3.8,7.4c0,3.9-11.4,17.4-36,33.7c-6,4-11.6,8.6-16.5,13.8c-4.6,4.9-6.4,11.8-4.8,18.3c1.7,6.6,6.6,11.9,13,14.1
	c7.9,2.5,16.1,3.6,24.3,3.5h107c4.4-0.2,8.2,2.8,9.3,7c0.4,2.5-0.2,5-1.9,7c-1.6,1.9-4,3-6.5,3H247c-4.7,0-8.5,3.8-8.5,8.5
	c0,4.7,3.8,8.5,8.5,8.5h118.3c4.3-0.2,8.1,2.6,9.3,6.7c0.7,3.1-0.4,6.3-2.9,8.3c-1.5,1.3-3.5,2-5.5,2H247c-4.7,0-8.5,3.8-8.5,8.5
	c0,4.7,3.8,8.5,8.5,8.5h96.5c4.7,0,8.5,3.8,8.5,8.5c0,0.9-0.1,1.7-0.4,2.6c-1.1,3.6-4.4,6-8.1,6H241.3c-4.7,0-8.5,3.8-8.5,8.5
	c0,4.7,3.8,8.5,8.5,8.5h57.7c2.3,0,4.4,0.9,6,2.6c1.7,1.7,2.6,4.1,2.5,6.5c-0.7,4.7-4.9,8.1-9.7,7.9l-135.2,0
	C146.9,459.1,132.1,452.5,120.3,442z M489.7,148.6c1.6,1.8,2.4,4.2,2.1,6.6l-2.8,24.6H281.1c-4.7,0-8.5,3.8-8.5,8.5
	c0,4.7,3.8,8.5,8.5,8.5H487l-2,17h-25.1c-4.7,0-8.5,3.8-8.5,8.5c0,4.7,3.8,8.5,8.5,8.5H483l-29.8,256.5c-0.5,4.3-4.2,7.6-8.5,7.6
	H194c-4.4,0-8-3.2-8.5-7.5l-1.1-9.5h113.5c13.7,0.2,25.3-10.1,26.6-23.8c0.3-3.5-0.2-7-1.4-10.3h20.4c8.3,0,16.1-4,20.9-10.8
	c4.8-6.8,6-15.4,3.2-23.3c7.4-0.4,14.3-4.1,18.9-10c4.5-5.9,6.3-13.5,4.7-20.8c-2.6-11.2-12.2-19.4-23.7-20.1
	c1.5-4.1,1.9-8.5,1.2-12.8c-2.3-12.5-13.3-21.5-26.1-21.4h-107c-6.4,0.1-12.8-0.7-18.9-2.6c-1-0.3-1.7-1.1-2-2.1
	c-0.3-0.9,0-1.9,0.6-2.6c4.1-4.3,8.6-8.1,13.6-11.3c19.9-13.2,43.5-32.3,43.5-47.8c0.2-9.9-5.4-18.9-14.4-23.2
	c-8.1-3.1-17.3-0.8-22.9,5.8c-7.9,7.9-38.2,23.4-74,37.9l-14.3-123.6c-0.3-2.4,0.5-4.8,2.1-6.6c1.6-1.8,4-2.9,6.4-2.8h235.1
	c0.6,0.2,1.2,0.3,1.8,0.3c0.6-0.1,1.2-0.2,1.7-0.3h89.3C485.8,145.8,488.1,146.8,489.7,148.6z M408.4,128.7c0.3-2.9,0.5-5.8,0.5-8.7
	c0.1-25.1-10.4-49-29-65.9c0.1-0.1,0-0.3,0.1-0.4c2.5-6.6,9.9-9.9,16.5-7.4c1,0.4,1.9,0.8,2.7,1.4c2.4,1.6,4.2,4,5,6.8
	c0.9,2.9,3.2,5.2,6.2,5.9c3,0.7,6.1-0.2,8.2-2.4c2.1-2.2,2.9-5.4,2-8.3c-1.3-4.5-3.7-8.5-6.9-11.9c2.8-6,9.7-8.8,15.8-6.4
	c6.6,2.5,9.9,9.9,7.4,16.5c-1.7,4.4,0.5,9.3,4.9,11c4.4,1.7,9.3-0.5,11-4.9c2.1-5.6,2.5-11.8,1-17.6c4.7-2.6,10.4-1.9,14.5,1.6
	c4,3.5,5.4,9.2,3.5,14.1c-0.5,1.2-1.1,2.3-1.9,3.3c-0.2,0.3-0.3,0.6-0.4,0.9c-0.3,0.5-0.6,1-0.7,1.6c-0.2,0.6-0.3,1.1-0.3,1.7
	c-0.1,0.3-0.1,0.7-0.2,1.1c0,0.2,0.1,0.4,0.1,0.5c0.1,0.5,0.2,1.1,0.4,1.6c0.1,0.5,0.3,1,0.6,1.5c0.2,0.4,0.5,0.8,0.8,1.2
	c0.4,0.5,0.8,0.9,1.2,1.3c0.2,0.1,0.2,0.3,0.4,0.4c0.4,0.2,0.7,0.4,1.1,0.6c0.3,0.2,0.6,0.3,0.9,0.5c0.9,0.4,1.9,0.6,2.9,0.6h0.2
	c2.1,0,4.2,0.3,6.1,1.1c8.9,3.2,13.5,12.9,10.3,21.8c-3.2,8.9-12.9,13.5-21.8,10.3c-7.2-3.4-15.7-3.1-22.6,0.9
	c-8.1,6-12.9,15.5-13,25.5H408.4z"/>
<path class="st0" d="M332.2,94.7c0,4.7,3.8,8.5,8.5,8.5c4.7,0,8.5-3.8,8.5-8.5c4.7,0,8.5-3.8,8.5-8.5c0-4.7-3.8-8.5-8.5-8.5
	c0-4.7-3.8-8.5-8.5-8.5c-4.7,0-8.5,3.8-8.5,8.5c-4.7,0-8.5,3.8-8.5,8.5C323.6,90.8,327.4,94.7,332.2,94.7z"/>
<path class="st0" d="M247,179.8h-25.5c-4.7,0-8.5,3.8-8.5,8.5c0,4.7,3.8,8.5,8.5,8.5H247c4.7,0,8.5-3.8,8.5-8.5
	C255.5,183.6,251.7,179.8,247,179.8z"/>
<path class="st0" d="M349.2,230.9h76.7c4.7,0,8.5-3.8,8.5-8.5c0-4.7-3.8-8.5-8.5-8.5h-76.7c-4.7,0-8.5,3.8-8.5,8.5
	C340.7,227.1,344.5,230.9,349.2,230.9z"/>
<path class="st0" d="M136.3,94.7c4.7,0,8.5-3.8,8.5-8.5c0-4.7-3.8-8.5-8.5-8.5H85.2c-4.7,0-8.5,3.8-8.5,8.5c0,4.7,3.8,8.5,8.5,8.5
	H136.3z"/>
<path class="st0" d="M51.1,77.6h-17c-4.7,0-8.5,3.8-8.5,8.5c0,4.7,3.8,8.5,8.5,8.5h17c4.7,0,8.5-3.8,8.5-8.5
	C59.6,81.4,55.8,77.6,51.1,77.6z"/>
<path class="st0" d="M51.1,120.2c0,4.7,3.8,8.5,8.5,8.5h51.1c4.7,0,8.5-3.8,8.5-8.5c0-4.7-3.8-8.5-8.5-8.5H59.6
	C54.9,111.7,51.1,115.5,51.1,120.2z"/>
<path class="st0" d="M8.5,128.7h17c4.7,0,8.5-3.8,8.5-8.5c0-4.7-3.8-8.5-8.5-8.5h-17c-4.7,0-8.5,3.8-8.5,8.5
	C0,124.9,3.8,128.7,8.5,128.7z"/>
</svg>
