<?xml version="1.0" encoding="utf-8"?>
<!-- Generator: Adobe Illustrator 25.1.0, SVG Export Plug-In . SVG Version: 6.00 Build 0)  -->
<svg version="1.1" id="Capa_1" xmlns="http://www.w3.org/2000/svg" xmlns:xlink="http://www.w3.org/1999/xlink" x="0px" y="0px"
	 viewBox="0 0 400 400" style="enable-background:new 0 0 400 400;" xml:space="preserve">
<style type="text/css">
	.st0{fill:#243F00;}
</style>
<path class="st0" d="M53.3,173.6c-0.8-35.9,10.3-67,35-92.8s55.1-38.2,90.6-39.1V29.8c-1.8,0-3.6,0.1-5.4,0
	c-3.8-0.2-6.3-2.5-6.4-5.9s2.5-6,6.3-6c15.7-0.1,31.4-0.1,47.2,0c3.8,0,6.4,2.5,6.4,5.9s-2.5,5.8-6.3,6c-1.7,0.1-3.4,0-5.4,0v11.9
	c35.6,0.8,66.2,13.5,90.8,39.3s35.5,56.8,34.8,92.6h21.9c6.1,0,8,1.9,8,8.1c0,3.1,0,6.2,0,9.4c-0.1,10.8-7.7,18.4-18.4,18.5
	c-12.9,0.1-25.7,0-38.5,0h-4.6c2.3,6.7,0,12.4-2.7,18.1c-6.2,13.3-12.3,26.7-18.2,40.2c-0.8,1.9-1.3,4-1.4,6.1
	c-0.1,11.2,0,22.5-0.1,33.7c0,7.4-2.1,14.4-7.5,19.4c-4.5,4.2-5.1,8.7-4.2,14.1c5,2,5.7,3.1,5.7,8.6c0,6.6,0,13.2,0,19.8
	c0,5.7-2,7.8-7.6,7.8c-23,0-45.9,0-68.9,0c-5.3,0-7.4-2.1-7.4-7.6c0-6.6,0-13.2,0-19.8c0-6.1,1.1-7.6,7.4-9
	c-8.2-7.2-16.4-14.1-24.4-21.2c-33-29.3-66-58.7-98.9-88.1c-8.5-7.6-9.5-10.6-8.3-22.1c-2.9,0-5.7,0-8.5,0c-7.7,0-15.5,0.1-23.2,0
	c-9.7-0.1-17.6-8-17.7-17.7c-0.1-3.7-0.1-7.5,0-11.2c0.1-4.8,2.2-7,7.2-7C38.1,173.5,45.5,173.6,53.3,173.6z M328.7,173.5
	c0.5-10.7-0.5-21.4-2.9-31.9c-10.6-46.8-52-83.4-99.6-87.1c-16.5-1.3-33.2-0.8-49.7-0.6c-7.4,0.1-14.7,1-21.9,2.7
	c-47.3,10.7-81.7,48.3-88.3,96.2c-0.9,6.8-0.9,13.8-1.3,20.8H328.7z M263,341.3c0.1-1.5,0.1-3,0-4.4c-1-6.8,1-12.3,6.5-16.7
	c4.1-3.3,5.5-8.2,5.5-13.4c0-11.4-0.1-22.7,0.1-34.1c0.1-3,0.7-5.9,1.8-8.6c6.5-14.8,13.3-29.5,20-44.3c2.9-6.5,0.6-10.2-6.4-10.3
	c-2,0-4,0.1-6,0c-4.3-0.4-6.9,1.5-8.9,5.3c-10,18.7-20.3,37.2-30.4,55.8c-1.2,2.6-3.6,4.5-6.4,5.1c-6.8,1.5-13.5,3.5-20.3,4.9
	c-2.5,0.5-5.1,0.3-7.5-0.5c-18.6-7.2-37-14.7-55.6-22c-3.1-1.1-5.5-3.4-6.9-6.4c-6.2-12.8-12.6-25.5-19-38.1
	c-2.1-4.1-8-5.6-12.4-3.3c-3.4,1.8-4,4.9-1.8,9.7c6.5,14.4,13.1,28.8,19.7,43.2c0.7,1.6,1.7,3,3,4.1c27.8,24.2,55.6,48.3,83.4,72.3
	c1,0.9,2.2,1.5,3.6,1.6C237.4,341.4,249.9,341.3,263,341.3z M141.3,209.7c0.2,0.6,0.3,1.1,0.6,1.7c5.6,11.1,11.1,22.3,16.8,33.4
	c0.8,1.3,2.1,2.4,3.5,2.9c12.7,5.2,25.7,9.6,38,15.5c10.7,5.2,20.9,6.4,31.7,1.8c1.8-0.8,3.8-2,4.7-3.6c9-16.1,17.7-32.3,26.5-48.5
	c0.5-0.9,1-1.9,1.6-3.2L141.3,209.7z M35.6,185.7c-1,10.2,0.5,11.9,10.3,11.9H349c1.4,0.1,2.7,0,4.1-0.1c3.3-0.4,5.3-2.2,5.6-5.5
	c0.1-2.1,0.1-4.2,0-6.3H35.6z M209.2,365h59.4v-11.5h-59.4V365z M112.2,243.8l0.7-0.3L100,215.3c-2.4-5.2-3.5-5.9-9.1-5.8
	c-2.9,0-5.1,1-6.3,3.8s-0.2,5.1,1.9,7C95,228.1,103.6,236,112.2,243.8z M202.8,41.7V30h-11.4v11.7H202.8z"/>
</svg>
