<svg id="Capa_1" data-name="Capa 1" xmlns="http://www.w3.org/2000/svg" viewBox="0 0 400 400"><defs><style>.cls-1{fill:#fff;}</style></defs><path class="cls-1" d="M53.31,173.57c-.77-35.85,10.34-67,35-92.82s55.05-38.23,90.61-39.12V29.78c-1.79,0-3.6.07-5.41,0-3.83-.17-6.34-2.55-6.35-5.95s2.48-6,6.31-6q23.56-.11,47.15,0c3.83,0,6.35,2.53,6.37,5.92s-2.5,5.83-6.31,6c-1.72.08-3.45,0-5.41,0V41.64c35.64.81,66.21,13.51,90.8,39.34s35.55,56.85,34.79,92.59h21.9c6.09,0,8,1.94,8,8.09,0,3.12,0,6.24,0,9.36-.13,10.75-7.69,18.4-18.41,18.47-12.85.09-25.7,0-38.55,0h-4.57c2.28,6.74,0,12.4-2.7,18.12q-9.29,20-18.2,40.17a15.68,15.68,0,0,0-1.35,6.06c-.13,11.23,0,22.46-.09,33.69,0,7.39-2.12,14.36-7.48,19.39-4.45,4.17-5.1,8.69-4.21,14.08,5,2,5.72,3.08,5.73,8.62,0,6.61,0,13.22,0,19.84,0,5.66-2,7.76-7.57,7.77q-34.43,0-68.86,0c-5.33,0-7.38-2.14-7.41-7.56,0-6.61,0-13.22,0-19.83,0-6.15,1.13-7.6,7.35-9-8.25-7.16-16.4-14.09-24.39-21.19q-49.53-44-98.95-88.08c-8.53-7.62-9.51-10.63-8.31-22.06-2.86,0-5.68,0-8.5,0-7.73,0-15.47.11-23.2,0A17.87,17.87,0,0,1,23.42,191.8c-.09-3.74-.06-7.49,0-11.23.07-4.84,2.25-7,7.21-7C38.07,173.54,45.52,173.57,53.31,173.57Zm275.42-.08a118,118,0,0,0-2.87-31.85c-10.56-46.81-51.95-83.42-99.64-87.1-16.5-1.27-33.16-.85-49.74-.62a105.87,105.87,0,0,0-21.85,2.65c-47.27,10.69-81.72,48.27-88.29,96.17-.94,6.82-.88,13.77-1.29,20.75ZM263,341.31a33.79,33.79,0,0,0,0-4.43c-.95-6.82,1-12.27,6.54-16.74,4.07-3.27,5.5-8.16,5.48-13.42,0-11.35-.13-22.71.07-34.06a23.07,23.07,0,0,1,1.84-8.6c6.54-14.81,13.33-29.51,20-44.27,2.94-6.5.58-10.23-6.43-10.27-2,0-4,.15-6,0-4.31-.4-6.87,1.52-8.89,5.29-10,18.66-20.27,37.2-30.35,55.84a9.22,9.22,0,0,1-6.45,5.08c-6.8,1.54-13.5,3.53-20.32,4.92a14.08,14.08,0,0,1-7.51-.53c-18.57-7.22-37-14.74-55.57-22a12,12,0,0,1-6.86-6.35c-6.23-12.77-12.61-25.46-19-38.14-2.05-4.07-8-5.59-12.38-3.32-3.41,1.79-4,4.88-1.8,9.73q9.8,21.61,19.66,43.2a12.55,12.55,0,0,0,3,4.15q41.64,36.23,83.42,72.32a6.15,6.15,0,0,0,3.56,1.59C237.45,341.36,249.92,341.31,263,341.31ZM141.26,209.69a15.39,15.39,0,0,0,.56,1.68c5.57,11.14,11.09,22.31,16.79,33.38a7.09,7.09,0,0,0,3.51,2.92c12.67,5.18,25.72,9.56,38,15.51,10.66,5.16,20.87,6.43,31.69,1.78,1.77-.75,3.78-2,4.66-3.57,9-16.11,17.73-32.32,26.53-48.51.52-.95.95-1.94,1.56-3.19Zm-105.62-24c-1,10.19.53,11.85,10.26,11.85H349a40.42,40.42,0,0,0,4.12-.05c3.27-.35,5.26-2.22,5.62-5.49a60.15,60.15,0,0,0,0-6.31ZM209.24,365h59.42V353.49H209.24ZM112.15,243.8l.67-.33L100,215.32c-2.38-5.23-3.54-5.9-9.13-5.83-2.9,0-5.08,1-6.27,3.78s-.22,5.11,1.87,7Q99.32,232.07,112.15,243.8ZM202.77,41.69V30H191.39V41.69Z"/></svg>