<?xml version="1.0" encoding="utf-8"?>
<!-- Generator: Adobe Illustrator 22.0.0, SVG Export Plug-In . SVG Version: 6.00 Build 0)  -->
<svg version="1.1" id="icons" xmlns="http://www.w3.org/2000/svg" xmlns:xlink="http://www.w3.org/1999/xlink" x="0px" y="0px"
	 viewBox="0 0 512 512" style="enable-background:new 0 0 512 512;" xml:space="preserve">
<style type="text/css">
	.st0{fill:#FFFFFF;}
</style>
<path class="st0" d="M24,368L24,368l0,32c0,4.4,3.6,8,8,8v32c0,4.4,3.6,8,8,8h0.5c4,35.9,34.5,64,71.5,64c37,0,67.5-28.1,71.5-64
	h0.5c4.4,0,8-3.6,8-8v-4.3c8.5,7.6,19.7,12.3,32,12.3l119.9,0c0.1,0,0.1,0,0.2,0c0.3,0,0.5,0,0.8,0l15.5,0c4,36,34.5,64,71.5,64
	c37,0,67.6-28.1,71.5-64.1h0.3c4.4,0,8-3.6,8-8c0-46-35.6-83.9-80.7-87.5L409.4,192H424c4.4,0,8-3.6,8-8v0h16c4.4,0,8-3.6,8-8v-64
	c0-4.4-3.6-8-8-8h-16c0-4.4-3.6-8-8-8h-63.9c0,0-0.1,0-0.1,0c-17.2,0-32.8,9.3-41.3,24H304c0,0,0,0,0,0c-13.2,0-24,10.8-24,24
	s10.8,24,24,24h0h14.6c7.3,12.7,20,21.4,34.4,23.5l23.1,169.4c-0.5,17.2-14.6,31.2-31.9,31.2h-72.1V288v0v0c0,0,0,0,0-0.1V256
	c0,0,0,0,0-0.1V72c0-4.4-3.6-8-8-8h-32h-8h0V40c0-22.1-17.9-40-40-40c-5.7,0-11.1,1.2-16,3.4C163.1,1.2,157.7,0,152,0
	c-22.1,0-40,17.9-40,40v24H64c-4.4,0-8,3.6-8,8v184c0,0,0,0.1,0,0.1v24.7c-18.2,3.7-32,19.9-32,39.2c-13.2,0-24,10.8-24,24
	C0,357.2,10.8,368,24,368L24,368z M176.1,408v24h-128v-24H176.1z M134.6,448c-3.3,9.3-12.1,16-22.5,16c-10.4,0-19.2-6.7-22.5-16
	H134.6z M112.1,496c-28.2,0-51.5-20.9-55.4-48h16.2c3.7,18.2,19.9,32,39.2,32s35.5-13.8,39.2-32h16.2
	C163.5,475.1,140.2,496,112.1,496L112.1,496z M432.1,496c-28.2,0-51.5-20.9-55.4-48.1h16.2c3.7,18.3,19.9,32.1,39.2,32.1
	s35.5-13.8,39.2-32.1h16.2C483.6,475.1,460.2,496,432.1,496z M409.5,448l45.1,0c-3.3,9.3-12.1,16.1-22.5,16.1S412.8,457.3,409.5,448
	z M495.5,431.9l-100.8,0c20.5-14.4,34.5-37.3,37.1-63.5C465.2,372,491.8,398.6,495.5,431.9z M440,120v48h-8v-48L440,120z M368,136
	c4.4,0,8,3.6,8,8s-3.6,8-8,8h-41.5c0.9-2.5,1.5-5.2,1.5-8s-0.6-5.5-1.5-8H368z M296.1,144c0-4.4,3.6-8,8-8c4.4,0,8,3.6,8,8
	s-3.6,8-8,8C299.6,152,296.1,148.4,296.1,144z M338.9,168H368c13.2,0,24-10.8,24-24s-10.8-24-24-24h-29.1c5.7-5.1,13.2-8,21.2-8
	c0,0,0,0,0.1,0H416v64h-55.9C352.1,176,344.6,173.1,338.9,168L338.9,168z M392.2,360c0-0.4-0.2-0.7-0.2-1c0,0,0-0.1,0-0.1L369.3,192
	h24l22.9,167.8c0,0.1,0,0.2,0,0.2c0,0.2,0.1,0.4,0.1,0.6c-0.3,39.2-32,70.9-71.2,71.3l-120.9,0c-14.9,0-27.3-10.2-30.9-24h151
	C370.7,408,392.2,386.5,392.2,360L392.2,360z M72.1,264h184v16h-184V264z M256,248h-16V80h16V248z M208,40v24h-16V40
	c0-9-3.1-17.3-8.2-24c0.1,0,0.1,0,0.2,0C197.2,16,208,26.8,208,40z M160,64V40c0-7.1,3.1-13.4,8-17.8c4.9,4.4,8,10.7,8,17.8v24H160z
	 M128,40c0-13.2,10.8-24,24-24c0.1,0,0.1,0,0.2,0c-5.1,6.7-8.2,15-8.2,24v24h-16V40z M72,80h152h0v168h0H72L72,80z M64,296
	c0.1,0,0.1,0,0.2,0h191.9v96h-71.9c0,0,0,0-0.1,0s0,0-0.1,0H40.1v-72c0,0,0-0.1,0-0.1C40.1,306.7,50.8,296,64,296L64,296z M24,336
	L24,336l0,16h0c-4.4,0-8-3.6-8-8S19.6,336,24,336z"/>
<path class="st0" d="M144,104c-4.4,0-8,3.6-8,8v8h-4v-8c0-4.4-3.6-8-8-8s-8,3.6-8,8v8h-4v-8c0-4.4-3.6-8-8-8s-8,3.6-8,8v32
	c0,0,0,0,0,0c0,8.8,7.2,16,16,16h4v56c0,4.4,3.6,8,8,8c4.4,0,8-3.6,8-8v-56h3.9c0,0,0,0,0.1,0c8.8,0,16-7.2,16-16c0,0,0,0,0,0v-32
	C152,107.6,148.4,104,144,104L144,104z M136,136v8c0,0,0,0,0,0.1h-24v-8L136,136L136,136z"/>
<path class="st0" d="M168.1,104C168.1,104,168,104,168.1,104C168,104,168,104,168.1,104C168,104,168,104,168.1,104
	c-4.5,0-8.1,3.6-8.1,8c0,0.1,0,0.2,0,0.2V216c0,4.4,3.6,8,8,8s8-3.6,8-8v-32h16c4.4,0,8-3.6,8-8v-40C200,118.4,185.7,104,168.1,104z
	 M176,122.2c4.8,2.8,8,7.9,8,13.8v32h-8V122.2z"/>
</svg>
