<svg id="Capa_1" data-name="Capa 1" xmlns="http://www.w3.org/2000/svg" viewBox="0 0 265.09 362"><defs><style>.cls-1{fill:#f4fdfe;}</style></defs><path class="cls-1" d="M156.9,248.88a7.2,7.2,0,0,0-10,1.83c-10.17,14.74-16.83,33.06-19.24,53a7.23,7.23,0,0,0,6.3,8,8.46,8.46,0,0,0,.87,0,7.21,7.21,0,0,0,7.15-6.35c2.13-17.61,7.94-33.7,16.79-46.52A7.21,7.21,0,0,0,156.9,248.88Z" transform="translate(-67.51 -19.01)"/><path class="cls-1" d="M181.69,222.23a65.74,65.74,0,0,0-17.82,10.13,7.21,7.21,0,1,0,8.93,11.32,51.45,51.45,0,0,1,13.9-7.92,7.21,7.21,0,1,0-5-13.53Z" transform="translate(-67.51 -19.01)"/><path class="cls-1" d="M186,166.51c-16-9.89-28.37-23.87-34-38.36a7.21,7.21,0,1,0-13.43,5.26c6.78,17.33,21.32,33.87,39.88,45.36A7.21,7.21,0,1,0,186,166.51Z" transform="translate(-67.51 -19.01)"/><path class="cls-1" d="M303.72,323.24h-5c-.89-33.75-10.78-65.38-28.09-89.54-11.21-15.64-24.73-27.06-39.54-33.69,14.81-6.64,28.33-18.06,39.54-33.7,17.31-24.16,27.2-55.79,28.09-89.54h5a28.88,28.88,0,1,0,0-57.76H96.4a28.88,28.88,0,1,0,0,57.76h5c.89,33.75,10.78,65.38,28.09,89.54C140.66,182,154.17,193.37,169,200c-14.82,6.63-28.33,18.05-39.54,33.69-17.31,24.16-27.2,55.79-28.09,89.54h-5a28.89,28.89,0,1,0,0,57.77H303.72a28.89,28.89,0,1,0,0-57.77ZM96.4,62.35a14.46,14.46,0,1,1,0-28.92H303.72a14.46,14.46,0,0,1,0,28.92Zm19.38,14.42H284.34c-1.85,64.16-38.94,115.54-84.28,115.54S117.62,140.93,115.78,76.77ZM200.06,207.7c45.34,0,82.43,51.38,84.27,115.54H115.78C117.62,259.08,154.72,207.7,200.06,207.7ZM303.72,366.58H96.4a14.46,14.46,0,1,1,0-28.92H303.72a14.46,14.46,0,0,1,0,28.92Z" transform="translate(-67.51 -19.01)"/></svg>