<?xml version="1.0" encoding="utf-8"?>
<!-- Generator: Adobe Illustrator 24.3.0, SVG Export Plug-In . SVG Version: 6.00 Build 0)  -->
<svg version="1.1" id="Capa_1" xmlns="http://www.w3.org/2000/svg" xmlns:xlink="http://www.w3.org/1999/xlink" x="0px" y="0px"
	 viewBox="0 0 265.1 362" style="enable-background:new 0 0 265.1 362;" xml:space="preserve">
<style type="text/css">
	.st0{fill:#FFFFFF;}
</style>
<path class="st0" d="M89.4,229.9c-3.3-2.2-7.7-1.4-10,1.8c-10.2,14.7-16.8,33.1-19.2,53c-0.5,3.9,2.4,7.5,6.3,8c0.3,0,0.6,0,0.9,0
	c3.6,0,6.7-2.7,7.1-6.4c2.1-17.6,7.9-33.7,16.8-46.5C93.5,236.6,92.6,232.1,89.4,229.9z"/>
<path class="st0" d="M114.2,203.2c-6.4,2.4-12.4,5.8-17.8,10.1c-3.2,2.4-3.8,6.9-1.4,10.1c2.4,3.2,6.9,3.8,10.1,1.4
	c0.1,0,0.1-0.1,0.2-0.1c4.2-3.3,8.9-6,13.9-7.9c3.7-1.4,5.6-5.5,4.3-9.3S117.9,201.8,114.2,203.2L114.2,203.2z"/>
<path class="st0" d="M118.5,147.5c-16-9.9-28.4-23.9-34-38.4c-1.5-3.7-5.6-5.5-9.3-4.1c-3.7,1.5-5.5,5.6-4.1,9.3
	c6.8,17.3,21.3,33.9,39.9,45.4c3.3,2.3,7.8,1.5,10-1.8c2.3-3.3,1.5-7.8-1.8-10C118.9,147.8,118.7,147.6,118.5,147.5z"/>
<path class="st0" d="M236.2,304.2h-5c-0.9-33.8-10.8-65.4-28.1-89.5c-11.2-15.6-24.7-27.1-39.5-33.7c14.8-6.6,28.3-18.1,39.5-33.7
	c17.3-24.2,27.2-55.8,28.1-89.5h5c15.9,0,28.9-12.9,28.9-28.9S252.2,0,236.2,0H28.9C12.9,0,0,12.9,0,28.9s12.9,28.9,28.9,28.9h5
	c0.9,33.8,10.8,65.4,28.1,89.5c11.2,15.7,24.7,27.1,39.5,33.7c-14.8,6.6-28.3,18.1-39.5,33.7c-17.3,24.2-27.2,55.8-28.1,89.5h-5
	c-16-0.3-29.1,12.4-29.4,28.3c-0.3,16,12.4,29.1,28.3,29.4c0.4,0,0.7,0,1.1,0h207.4c16,0.3,29.1-12.4,29.4-28.3
	c0.3-16-12.4-29.1-28.3-29.4C236.9,304.2,236.6,304.2,236.2,304.2L236.2,304.2z M28.9,43.3c-8,0-14.5-6.5-14.5-14.5
	s6.5-14.5,14.5-14.5l0,0h207.3c8,0,14.5,6.5,14.5,14.5s-6.5,14.5-14.5,14.5H28.9z M48.3,57.8h168.6C215,122,178,173.3,132.6,173.3
	S50.1,121.9,48.3,57.8z M132.5,188.7c45.3,0,82.4,51.4,84.3,115.5H48.3C50.1,240.1,87.2,188.7,132.5,188.7z M236.2,347.6H28.9
	c-8,0-14.5-6.5-14.5-14.5s6.5-14.5,14.5-14.5h207.3c8,0,14.5,6.5,14.5,14.5S244.2,347.6,236.2,347.6z"/>
</svg>
